<?xml version="1.0" standalone="no"?>
<!DOCTYPE svg PUBLIC "-//W3C//DTD SVG 1.1//EN" "http://www.w3.org/Graphics/SVG/1.1/DTD/svg11.dtd" >
<svg xmlns="http://www.w3.org/2000/svg" xmlns:xlink="http://www.w3.org/1999/xlink" version="1.1">
<metadata></metadata>
<defs>
<font id="mullerbold" horiz-adv-x="1208" >
<font-face units-per-em="2048" ascent="1597" descent="-451" />
<missing-glyph horiz-adv-x="454" />
<glyph horiz-adv-x="0" />
<glyph unicode="&#xd;" horiz-adv-x="681" />
<glyph unicode=" "  horiz-adv-x="454" />
<glyph unicode="&#x09;" horiz-adv-x="454" />
<glyph unicode="&#xa0;" horiz-adv-x="454" />
<glyph unicode="!" horiz-adv-x="552" d="M104 141q0 80 50.5 123t121.5 43q74 0 123.5 -43t49.5 -123q0 -84 -49.5 -126t-123 -42t-123 43t-49.5 125zM127 1434h299l-18 -942h-263z" />
<glyph unicode="&#x22;" horiz-adv-x="823" d="M106 985v449h254l-53 -449h-201zM492 985v449h253l-53 -449h-200z" />
<glyph unicode="#" horiz-adv-x="1406" d="M70 309v209h188l86 359h-172v208h221l74 310h270l-73 -310h264l73 310h271l-74 -310h137v-208h-186l-86 -359h170v-209h-219l-72 -309h-270l71 309h-264l-71 -309h-271l72 309h-139zM528 518h265l86 359h-265z" />
<glyph unicode="$" horiz-adv-x="1239" d="M86 100v293q229 -152 514 -151q131 0 195.5 31.5t64.5 105.5q0 53 -42 92t-109.5 62.5t-149.5 47t-164 55.5t-149.5 76t-109.5 121.5t-42 180.5q0 174 110.5 275.5t293.5 125.5v244h223v-246q217 -20 362 -102v-287q-182 131 -442 127q-233 -4 -233 -133q0 -49 42 -85 t110.5 -58.5t149.5 -45t162.5 -55.5t150.5 -77t111 -121.5t42 -182.5q0 -201 -124 -301t-331 -117v-241h-223v243q-236 23 -412 123z" />
<glyph unicode="%" horiz-adv-x="1886" d="M59 1110q0 166 107.5 259t265.5 93q156 0 262.5 -93t106.5 -259t-106.5 -259t-262.5 -93q-158 0 -265.5 93t-107.5 259zM289 1110q0 -59 35.5 -100t107.5 -41q68 0 103.5 41t35.5 100t-35.5 100t-103.5 41q-72 0 -107.5 -41t-35.5 -100zM426 -123l838 1679h204 l-837 -1679h-205zM1085 323.5q0 165.5 107.5 259t265.5 93.5q156 0 262.5 -93.5t106.5 -259t-106.5 -259t-262.5 -93.5q-158 0 -265.5 93.5t-107.5 259zM1315 323.5q0 -59.5 35.5 -100.5t107.5 -41q68 0 103.5 41t35.5 100.5t-35.5 100.5t-103.5 41q-72 0 -107.5 -41 t-35.5 -100.5z" />
<glyph unicode="&#x26;" horiz-adv-x="1484" d="M84 354q0 231 285 391q-160 172 -160 326q0 170 136 280.5t345 110.5q186 0 309 -100t123 -258q0 -137 -97 -231.5t-259 -174.5l262 -254q70 123 68 256h280q1 -235 -159 -436l274 -264h-326l-116 109q-197 -137 -465 -138q-225 0 -362.5 106.5t-137.5 276.5zM377 381 q0 -80 64.5 -125t181.5 -45q135 0 243 68l-327 305q-162 -90 -162 -203zM481 1067q0 -90 119 -209q117 53 183.5 107.5t66.5 126.5q0 66 -43 103.5t-123 37.5q-92 0 -147.5 -49t-55.5 -117z" />
<glyph unicode="'" horiz-adv-x="438" d="M106 985v449h254l-53 -449h-201z" />
<glyph unicode="(" horiz-adv-x="645" d="M74 717q0 244 83 493.5t224 448.5h229q-115 -199 -180 -447.5t-65 -494.5t65.5 -495t179.5 -447h-229q-141 199 -224 448.5t-83 493.5z" />
<glyph unicode=")" horiz-adv-x="645" d="M35 -225q115 199 180.5 447.5t65.5 494.5t-65.5 494.5t-180.5 447.5h229q141 -199 224 -448.5t83 -493.5t-82.5 -494t-224.5 -448h-229z" />
<glyph unicode="*" horiz-adv-x="983" d="M68 1047l90 249l233 -116l-33 254h267l-33 -254l233 116l90 -249l-253 -52l180 -184l-217 -152l-133 252l-134 -252l-217 152l181 184z" />
<glyph unicode="+" horiz-adv-x="1105" d="M74 596v242h358v358h242v-358h358v-242h-358v-358h-242v358h-358z" />
<glyph unicode="," horiz-adv-x="536" d="M12 -297l129 551h301l-200 -551h-230z" />
<glyph unicode="-" horiz-adv-x="987" d="M113 379v239h761v-239h-761z" />
<glyph unicode="." horiz-adv-x="509" d="M82 141q0 82 50 125t124 43t123 -43t49 -125t-49 -125t-123 -43t-124 43t-50 125z" />
<glyph unicode="/" horiz-adv-x="923" d="M47 -121l627 1675h203l-627 -1675h-203z" />
<glyph unicode="0" horiz-adv-x="1445" d="M88 696.5q0 321.5 159 523t476 201.5t476 -201.5t159 -523t-159 -523.5t-476 -202t-476 202t-159 523.5zM395 696.5q0 -454.5 328 -454.5t328 454.5t-328 454.5t-328 -454.5z" />
<glyph unicode="1" horiz-adv-x="944" d="M104 0v264h263v821l-263 -98v277l338 129h224v-1129h233v-264h-795z" />
<glyph unicode="2" horiz-adv-x="1220" d="M82 0v137q0 113 34 203t110.5 161.5t128 107.5t155.5 98q20 12 31 18q12 8 52 29.5t52 30t43 27.5t43 30.5t31.5 32t28 37t14.5 39t6 46.5q0 76 -61.5 116t-169.5 40q-233 0 -451 -166v287q207 147 479 147q223 0 365.5 -104.5t142.5 -306.5q0 -158 -101.5 -269.5 t-275.5 -214.5q-205 -121 -252 -164q-55 -53 -57 -100l696 2v-264h-1044z" />
<glyph unicode="3" horiz-adv-x="1220" d="M96 66v284q201 -113 459 -108q129 0 209 45t80 137q0 162 -242 162h-229l2 262l192 -2q104 0 162.5 38t58.5 109q0 76 -65.5 118t-190.5 42q-207 0 -411 -125v285q201 109 454 108q225 0 364.5 -100.5t139.5 -284.5q0 -106 -56 -185t-155 -114q117 -35 193 -124t76 -232 q0 -106 -46.5 -187t-126 -128.5t-177 -71t-207.5 -23.5q-256 0 -484 95z" />
<glyph unicode="4" horiz-adv-x="1341" d="M45 254v254l719 885h305v-883h211v-256h-211v-254h-293v254h-731zM365 510h411v508z" />
<glyph unicode="5" horiz-adv-x="1206" d="M92 66v284q174 -111 414 -110q143 0 230 51t87 149q0 205 -340 205q-184 0 -350 -59l49 809h885v-265l-608 3l-19 -273q98 20 181 21q225 0 367 -108.5t142 -336.5q0 -229 -169.5 -347t-419.5 -118q-254 0 -449 95z" />
<glyph unicode="6" horiz-adv-x="1314" d="M88 696q0 184 53.5 326.5t145.5 227.5t208.5 128t254.5 43q199 0 383 -86v-270q-150 98 -342 98q-351 0 -398 -356q176 94 373 94q201 0 343 -118.5t142 -331.5q0 -227 -153.5 -353.5t-378.5 -126.5q-631 0 -631 725zM393 559q20 -184 96 -261t205 -77q111 0 180.5 53.5 t69.5 161.5q0 209 -272 209q-148 0 -279 -86z" />
<glyph unicode="7" horiz-adv-x="1159" d="M51 1130v265h1071v-221l-571 -1174h-332l551 1130h-719z" />
<glyph unicode="8" horiz-adv-x="1347" d="M84 387q0 104 59.5 197.5t157.5 152.5q-166 113 -166 299q0 156 135.5 270.5t401.5 114.5q252 0 395 -117.5t145 -275.5q2 -188 -176 -321q227 -113 228 -330q0 -170 -146.5 -288t-441.5 -118q-293 0 -442.5 121t-149.5 295zM391 424q2 -94 79 -152.5t228 -58.5 q113 0 186.5 43t73.5 113q0 35 -14 63.5t-32.5 46t-58.5 37t-65.5 29.5t-80.5 28q-29 10 -99.5 33t-107.5 37q-113 -94 -109 -219zM428 1034q0 -35 16.5 -64.5t35 -48t61.5 -38t67.5 -28.5t81.5 -28q23 -6 67 -19t62 -17q103 102 99 215q0 76 -67 125t-192 49 q-106 0 -168.5 -42t-62.5 -104z" />
<glyph unicode="9" horiz-adv-x="1314" d="M63 942q0 227 154 353t379 126q631 0 631 -725q0 -184 -53.5 -326.5t-145.5 -227.5t-209 -128t-254 -43q-199 0 -383 86v271q150 -98 342 -99q350 0 398 357q-176 -94 -371 -94q-203 0 -345.5 118.5t-142.5 331.5zM371 956q0 -209 272 -208q141 0 279 83q-20 186 -96 263 t-205 77q-111 0 -180.5 -53t-69.5 -162z" />
<glyph unicode=":" horiz-adv-x="575" d="M115 141q0 82 50 125t123.5 43t123 -43t49.5 -125t-49.5 -125t-123 -43t-123.5 43t-50 125zM115 764q0 82 50 125t123.5 43t123 -43t49.5 -125q0 -84 -49.5 -126t-123 -42t-123.5 43t-50 125z" />
<glyph unicode=";" horiz-adv-x="595" d="M41 -297l129 551h301l-201 -551h-229zM127 821q0 82 49 124t123 42q76 0 125 -42t49 -124q0 -84 -49 -127t-125 -43q-74 0 -123 44t-49 126z" />
<glyph unicode="&#x3c;" horiz-adv-x="1036" d="M80 575v283l815 297v-256l-567 -182l567 -182v-256z" />
<glyph unicode="=" horiz-adv-x="1183" d="M121 393v240h942v-240h-942zM121 801v239h942v-239h-942z" />
<glyph unicode="&#x3e;" horiz-adv-x="1036" d="M141 279v256l568 182l-568 182v256l815 -297v-283z" />
<glyph unicode="?" horiz-adv-x="1021" d="M72 1092v270q186 100 397 100q213 0 351 -88t138 -270q0 -78 -36.5 -155t-90 -137t-106.5 -116.5t-90 -115t-37 -109.5h-270q0 72 33.5 142.5t80.5 126t94.5 105.5t81 100t33.5 93q0 154 -233 154q-172 0 -346 -100zM291 141q0 82 50 125t124 43t123 -43t49 -125 t-49 -125t-123 -43t-124 43t-50 125z" />
<glyph unicode="@" horiz-adv-x="2146" d="M76 492q0 188 67.5 361t191.5 310t320.5 218t434.5 81q236 0 427 -83t306.5 -215t177 -284.5t61.5 -306.5q0 -279 -119.5 -420t-328.5 -141q-123 0 -213 55.5t-125 151.5q-90 -156 -289 -156q-178 0 -282.5 127t-104.5 297q0 174 103.5 300t287.5 126q182 0 279 -137v113 h217v-506q0 -160 141 -160q174 0 174 350q0 115 -45 228.5t-130 209t-225 155t-312 59.5q-346 0 -550 -215t-204 -518q0 -354 236.5 -543t596.5 -189q223 0 445 72v-235q-207 -74 -453 -74q-219 0 -412.5 62.5t-345 180t-239.5 305.5t-88 421zM846 487.5q0 -92.5 54 -157 t147 -64.5q72 0 125 41t75 101v159q-20 61 -73.5 101.5t-126.5 40.5q-92 0 -146.5 -64.5t-54.5 -157z" />
<glyph unicode="A" horiz-adv-x="1513" d="M6 0l586 1434h332l583 -1434h-317l-105 268h-655l-106 -268h-318zM526 522h463l-201 514q-20 57 -30 113q-13 -64 -33 -113z" />
<glyph unicode="B" horiz-adv-x="1404" d="M154 0v1434h626q236 0 366 -91.5t130 -271.5q0 -240 -217 -313q119 -35 196.5 -122t77.5 -235q0 -117 -51 -199.5t-138 -123.5t-178.5 -59.5t-195.5 -18.5h-616zM459 250h307q121 0 190.5 39t69.5 145q0 184 -244 184h-323v-368zM461 854h309q90 0 145.5 42t55.5 122 q0 164 -217 164h-293v-328z" />
<glyph unicode="C" horiz-adv-x="1339" d="M74 700q0 188 66.5 339t176 241t244.5 136t283 46q225 0 409 -92v-293q-145 113 -358 113q-209 0 -357.5 -124t-148.5 -366q0 -115 43 -203.5t116 -142t162 -81t185 -27.5q238 0 369 119v-302q-190 -92 -416 -92q-147 0 -282.5 45t-247 131t-178 229.5t-66.5 323.5z" />
<glyph unicode="D" horiz-adv-x="1519" d="M154 0v1434h536q369 0 560.5 -196t191.5 -521.5t-191.5 -521t-560.5 -195.5h-536zM461 270h229q215 0 326.5 113t111.5 334t-111.5 333.5t-326.5 112.5h-229v-893z" />
<glyph unicode="E" horiz-adv-x="1265" d="M154 0v1434h1009v-271h-702v-305h641v-268h-641v-320h715v-270h-1022z" />
<glyph unicode="F" horiz-adv-x="1234" d="M154 0v1434h1011v-277h-704v-334h645v-276h-645v-547h-307z" />
<glyph unicode="G" horiz-adv-x="1437" d="M76 717q0 188 65.5 334.5t177 234.5t249 132t288.5 44q233 0 440 -92v-293q-168 111 -399 111q-213 0 -360.5 -118t-147.5 -353q0 -135 46 -233.5t122 -148.5t156 -72.5t168 -22.5t157 26v512h293v-710q-225 -96 -467 -97q-123 0 -236.5 27t-215 85t-175 143t-117.5 211 t-44 280z" />
<glyph unicode="H" horiz-adv-x="1564" d="M154 0v1434h307v-578h643v578h307v-1434h-307v578h-643v-578h-307z" />
<glyph unicode="I" horiz-adv-x="614" d="M154 0v1434h307v-1434h-307z" />
<glyph unicode="J" horiz-adv-x="1054" d="M29 47v287q127 -78 297 -78q279 0 278 211v690h-381v277h688v-1002q0 -238 -143 -348.5t-369 -110.5q-209 0 -370 74z" />
<glyph unicode="K" horiz-adv-x="1415" d="M154 0v1434h307v-570h231l363 570h342l-465 -699l491 -735h-340l-391 586h-231v-586h-307z" />
<glyph unicode="L" horiz-adv-x="1189" d="M154 0v1434h307v-1158h702v-276h-1009z" />
<glyph unicode="M" horiz-adv-x="1857" d="M154 0v1434h284l492 -746l489 746h285v-1434h-307v883l-379 -576h-178l-379 578v-885h-307z" />
<glyph unicode="N" horiz-adv-x="1564" d="M154 0v1434h288l668 -936q-6 88 -6 196v740h307v-1434h-289l-667 936q6 -88 6 -197v-739h-307z" />
<glyph unicode="O" horiz-adv-x="1671" d="M74 716.5q0 147.5 48 280.5t141 237.5t240.5 166t332 61.5t332 -61.5t240.5 -166t141 -237.5t48 -280.5t-48 -280.5t-141 -237.5t-240.5 -166t-332 -61.5t-332 61.5t-240.5 166t-141 237.5t-48 280.5zM387 716.5q0 -198.5 117 -329.5t332 -131q213 0 329.5 131 t116.5 329.5t-116.5 330t-329.5 131.5q-215 0 -332 -131.5t-117 -330z" />
<glyph unicode="P" horiz-adv-x="1363" d="M154 0v1434h540q618 0 619 -482q0 -481 -619 -481h-233v-471h-307zM461 741h248q290 0 290 211t-290 211h-248v-422z" />
<glyph unicode="Q" horiz-adv-x="1671" d="M74 716.5q0 147.5 48 280.5t141 237.5t240.5 166t332 61.5t332 -61.5t240.5 -166t141 -237.5t48 -280q0 -285 -165 -488l165 -163l-206 -187l-177 176q-164 -84 -378 -84q-184 0 -332 61.5t-241 166t-141 237.5t-48 280.5zM387 717q0 -199 117 -330t332 -131q82 0 151 27 l-172 172l197 194l196 -194q74 111 74 262q0 199 -116.5 332t-329.5 133q-215 0 -332 -132t-117 -333z" />
<glyph unicode="R" horiz-adv-x="1445" d="M154 0v1434h589q113 0 208.5 -22.5t180.5 -74t133 -145.5t48 -225q0 -326 -314 -426l428 -541h-354l-387 502h-225v-502h-307zM461 758h297q104 0 172.5 50t68.5 153q0 104 -67.5 153t-173.5 49h-297v-405z" />
<glyph unicode="S" horiz-adv-x="1241" d="M90 1055q0 199 149.5 303t374.5 104q270 0 465 -110v-287q-177 127 -427 127h-15q-233 -4 -234 -133q0 -57 58.5 -100.5t145.5 -69t188.5 -65.5t188.5 -86t145.5 -136t58.5 -209q0 -117 -44 -200.5t-124 -131t-176 -69t-215 -21.5q-299 0 -531 129v293q228 -151 504 -151 h4q268 0 268 137q0 61 -58 107t-145 74t-188.5 68t-188.5 86t-145.5 134t-58.5 207z" />
<glyph unicode="T" horiz-adv-x="1239" d="M27 1157v277h1185v-277h-440v-1157h-305v1157h-440z" />
<glyph unicode="U" horiz-adv-x="1536" d="M139 539v895h307v-879q0 -307 322 -307q324 0 324 307v879h305v-895q0 -123 -35 -221.5t-94.5 -162t-141.5 -106.5t-171 -60.5t-187 -17.5t-187 17.5t-171 60.5t-141.5 106.5t-94.5 162t-35 221.5z" />
<glyph unicode="V" horiz-adv-x="1456" d="M12 1434h332l383 -1074l385 1074h332l-559 -1434h-316z" />
<glyph unicode="W" horiz-adv-x="2162" d="M20 1434h332l285 -1084l309 1084h271l309 -1084l284 1084h332l-442 -1434h-334l-285 977l-284 -977h-334z" />
<glyph unicode="X" horiz-adv-x="1388" d="M-12 0l514 743l-484 691h359l317 -471l316 471h360l-483 -691l514 -743h-361l-346 522l-348 -522h-358z" />
<glyph unicode="Y" horiz-adv-x="1437" d="M6 1434h346l367 -643l366 643h347l-560 -926v-508h-305v508z" />
<glyph unicode="Z" horiz-adv-x="1257" d="M66 0v221l692 936h-662v277h1067v-222l-694 -936h719v-276h-1122z" />
<glyph unicode="[" horiz-adv-x="677" d="M125 -225v1884h493v-256h-206v-1370h206v-258h-493z" />
<glyph unicode="\" horiz-adv-x="923" d="M47 1554h203l627 -1675h-203z" />
<glyph unicode="]" horiz-adv-x="677" d="M59 33h207v1370h-207v256h494v-1884h-494v258z" />
<glyph unicode="^" d="M66 725l413 709h250l414 -709h-305l-234 426l-233 -426h-305z" />
<glyph unicode="_" horiz-adv-x="991" d="M0 -113h991v-241h-991v241z" />
<glyph unicode="`" horiz-adv-x="518" d="M2 1868h311l185 -303h-275z" />
<glyph unicode="a" horiz-adv-x="1136" d="M49 272q0 117 69.5 195t162 105.5t200.5 27.5q121 0 234 -27v35q0 76 -59.5 121t-172.5 45q-164 0 -348 -74v246q197 66 381 66q483 0 483 -445v-313q0 -66 70 -66q29 0 53 9v-187q-75 -28 -152 -28h-5q-156 0 -217 110q-154 -121 -355 -121q-145 0 -244.5 81t-99.5 220z M340 295q0 -53 44 -87t110 -34q129 0 221 80v154q-94 22 -168 22q-88 0 -147.5 -32.5t-59.5 -102.5z" />
<glyph unicode="b" horiz-adv-x="1273" d="M121 0v1434h285v-555q117 133 323 133q223 0 351 -152.5t128 -368t-128 -368t-351 -152.5q-236 0 -356 172v-143h-252zM403 375q31 -70 99.5 -117t156.5 -47q119 0 189 81t70 199.5t-70 199.5t-189 81q-88 0 -156.5 -47t-99.5 -117v-233z" />
<glyph unicode="c" horiz-adv-x="1003" d="M66 477q0 135 48 241.5t128 169t176 94.5t203 32q170 0 303 -72v-250q-115 74 -262 74q-129 0 -217.5 -67.5t-88.5 -206.5q0 -133 88 -204t213 -71q158 0 277 72v-252q-154 -66 -332 -66q-221 0 -378.5 130t-157.5 376z" />
<glyph unicode="d" horiz-adv-x="1273" d="M66 491.5q0 215.5 129 368t352 152.5q203 0 323 -133v555h283v-1434h-250v143q-125 -172 -356 -172q-223 0 -352 152.5t-129 368zM356 491.5q0 -118.5 70 -199.5t188 -81q88 0 157 47t99 117v233q-31 70 -99.5 117t-156.5 47q-119 0 -188.5 -81t-69.5 -199.5z" />
<glyph unicode="e" horiz-adv-x="1120" d="M66 492q0 133 47 236t123.5 162.5t161.5 90.5t173 31q147 0 255 -55.5t159 -142.5q51 -86 71 -196q8 -42 7 -85q0 -67 -19 -134h-692q23 -102 119 -152t227 -50q162 0 297 59v-223q-145 -61 -360 -62q-246 0 -407.5 137.5t-161.5 383.5zM350 584h438q2 12 2 23 q0 57 -41 117q-49 72 -167 71q-94 0 -162 -56.5t-70 -154.5z" />
<glyph unicode="f" horiz-adv-x="825" d="M47 743v240h170v96q0 106 34 184t91 120t121.5 60.5t140.5 18.5q135 0 242 -41v-239q-72 41 -170 41q-176 0 -176 -156v-84h301v-240h-301v-743h-283v743h-170z" />
<glyph unicode="g" horiz-adv-x="1273" d="M66 491.5q0 215.5 129 368t352 152.5q231 0 356 -172v143h250v-956q0 -135 -47 -236.5t-128 -158t-179.5 -84t-210.5 -27.5q-225 0 -416 92v250q172 -102 379 -103q319 0 319 254v90q-121 -133 -323 -133q-223 0 -352 152.5t-129 368zM356 491.5q0 -118.5 70 -199.5 t188 -81q88 0 157 45t99 113v239q-31 70 -99.5 117t-156.5 47q-119 0 -188.5 -81t-69.5 -199.5z" />
<glyph unicode="h" d="M121 0v1434h285v-541q127 119 294 119q188 0 294 -114t106 -290v-608h-285v571q0 96 -52 145.5t-138 49.5q-133 0 -219 -125v-641h-285z" />
<glyph unicode="i" horiz-adv-x="532" d="M98 1309q0 78 47.5 118.5t119 40.5t119.5 -40.5t48 -118.5q0 -80 -47 -121t-121 -41q-72 0 -119 41t-47 121zM123 0v983h285v-983h-285z" />
<glyph unicode="j" horiz-adv-x="530" d="M-113 -207q43 -20 103 -20q135 0 135 139v1071h283v-1122q0 -178 -97.5 -259t-247.5 -81q-106 0 -176 28v244zM98 1309q0 78 48.5 118.5t120 40.5t118.5 -40.5t47 -118.5q0 -80 -47 -121t-118.5 -41t-120 41t-48.5 121z" />
<glyph unicode="k" horiz-adv-x="1120" d="M121 0v1434h285v-818h118l250 367h320l-338 -485l366 -498h-319l-283 389h-114v-389h-285z" />
<glyph unicode="l" horiz-adv-x="534" d="M125 0v1495h285v-1495h-285z" />
<glyph unicode="m" horiz-adv-x="1792" d="M121 0v983h252v-115q47 55 129 99.5t184 44.5q203 0 301 -146q150 145 328 146q188 0 277 -118t89 -271v-623h-282v604q0 76 -42 119t-112 43q-109 0 -194 -98q2 -14 2 -45v-623h-283v604q0 76 -42 119t-112 43q-121 0 -210 -119v-647h-285z" />
<glyph unicode="n" d="M121 0v983h252v-125q133 154 327 154q188 0 294 -114t106 -290v-608h-285v571q0 96 -52 145.5t-138 49.5q-133 0 -219 -125v-641h-285z" />
<glyph unicode="o" horiz-adv-x="1216" d="M66 491.5q0 245.5 157.5 383t384.5 137.5q229 0 386 -137.5t157 -383t-156.5 -383t-386.5 -137.5q-227 0 -384.5 137.5t-157.5 383zM356 491.5q0 -116.5 66.5 -191.5t185.5 -75t186.5 75t67.5 191.5t-67.5 191.5t-186.5 75t-185.5 -75t-66.5 -191.5z" />
<glyph unicode="p" horiz-adv-x="1273" d="M121 -451v1434h252v-143q121 172 356 172q223 0 351 -152.5t128 -368t-128 -368t-351 -152.5q-203 0 -323 133v-555h-285zM403 375q31 -70 99.5 -117t156.5 -47q119 0 189 81t70 199.5t-70 199.5t-189 81q-88 0 -156.5 -47t-99.5 -117v-233z" />
<glyph unicode="q" horiz-adv-x="1273" d="M66 491.5q0 215.5 129 368t352 152.5q231 0 356 -172v143h250v-1434h-283v555q-121 -133 -323 -133q-223 0 -352 152.5t-129 368zM356 491.5q0 -118.5 70 -199.5t188 -81q88 0 157 47t99 117v233q-31 70 -99.5 117t-156.5 47q-119 0 -188.5 -81t-69.5 -199.5z" />
<glyph unicode="r" horiz-adv-x="800" d="M121 0v983h252v-147q55 86 159 133q83 37 185 38q26 0 53 -3v-277q-39 7 -76 7q-75 0 -142 -28q-101 -40 -146 -128v-578h-285z" />
<glyph unicode="s" horiz-adv-x="976" d="M78 709q0 158 116.5 230.5t292.5 72.5q190 0 363 -84v-234q-63 43 -160.5 72t-183.5 29q-137 0 -137 -78q0 -45 57 -74t139 -50.5t163 -52t138.5 -98t57.5 -168.5q0 -111 -64.5 -180t-160 -96t-222.5 -27q-236 0 -391 92v236q160 -104 375 -104q172 0 172 73 q0 43 -57.5 72t-138.5 51.5t-162.5 54t-139 98.5t-57.5 165z" />
<glyph unicode="t" horiz-adv-x="856" d="M29 743v240h166v287l282 67v-354h311v-240h-311v-385q0 -147 158 -147q94 0 178 33v-230q-123 -43 -264 -43q-156 0 -255 80t-99 252v440h-166z" />
<glyph unicode="u" d="M109 375v608h284v-571q0 -96 49.5 -145.5t139.5 -49.5q131 0 221 125v641h284v-983h-251v125q-133 -154 -328 -154q-193 0 -296 113t-103 291z" />
<glyph unicode="v" horiz-adv-x="1146" d="M18 983h304l251 -682l252 682h303l-405 -983h-299z" />
<glyph unicode="w" horiz-adv-x="1673" d="M25 983h303l178 -674l196 674h271l194 -674l181 674h301l-316 -983h-301l-194 641l-195 -641h-303z" />
<glyph unicode="x" horiz-adv-x="1085" d="M4 0l375 496l-356 487h321l201 -295l196 295h322l-354 -487l374 -496h-321l-217 301l-219 -301h-322z" />
<glyph unicode="y" horiz-adv-x="1153" d="M6 983h301l287 -664l244 664h295l-437 -1102q-145 -358 -424 -358q-59 0 -153 22v236q68 -14 117 -14q156 0 233 215l2 4z" />
<glyph unicode="z" horiz-adv-x="987" d="M63 0v184l461 564h-434v235h801v-184l-461 -561h494v-238h-861z" />
<glyph unicode="{" horiz-adv-x="731" d="M55 592v250q152 -4 152 137v391q0 176 118.5 256t327.5 33v-250q-88 14 -123.5 -27t-35.5 -137v-303q0 -104 -52.5 -162.5t-122.5 -62.5q70 -4 122.5 -62.5t52.5 -162.5v-304q0 -96 35.5 -136.5t123.5 -26.5v-250q-209 -47 -327.5 32.5t-118.5 255.5v392q0 141 -152 137z " />
<glyph unicode="|" horiz-adv-x="536" d="M125 -205v1864h287v-1864h-287z" />
<glyph unicode="}" horiz-adv-x="731" d="M78 25q88 -14 124 26.5t36 136.5v304q0 104 52 162.5t122 62.5q-70 4 -122 62.5t-52 162.5v303q0 96 -36 137t-124 27v250q209 47 327.5 -33t118.5 -256v-391q0 -141 152 -137v-250q-152 4 -152 -137v-392q0 -176 -118.5 -255.5t-327.5 -32.5v250z" />
<glyph unicode="~" horiz-adv-x="1230" d="M127 526q-18 158 56.5 242t197.5 84q90 0 236.5 -53.5t197.5 -53.5q72 0 62 89h241q18 -156 -55.5 -242t-204.5 -86q-80 0 -232.5 55t-197.5 53q-72 0 -59 -88h-242z" />
<glyph unicode="&#xa1;" horiz-adv-x="532" d="M94 844q0 82 49.5 125t123 43t122.5 -42t49 -126q0 -82 -49 -124t-122.5 -42t-123 42t-49.5 124zM117 -449l18 943h262l19 -943h-299z" />
<glyph unicode="&#xa2;" horiz-adv-x="1038" d="M70 477q0 242 139 377t344 156v219h197v-225q100 -18 178 -62v-250q-80 51 -178 66v-535q111 18 188 66v-252q-90 -39 -188 -53v-230h-197v219q-205 14 -344 143.5t-139 360.5zM360 492q0 -102 53.5 -168t139.5 -91v519q-193 -55 -193 -260z" />
<glyph unicode="&#xa3;" horiz-adv-x="1234" d="M78 0v250h53q66 0 103.5 49t37.5 125v147h-163v230h163v127q0 248 143.5 370.5t358.5 122.5q174 0 330 -75v-250q-115 90 -273 90q-119 0 -195.5 -65.5t-76.5 -198.5v-121h397v-230h-397v-147q0 -123 -70 -174h670v-250h-1081z" />
<glyph unicode="&#xa4;" horiz-adv-x="1165" d="M100 377l119 117q-63 96 -63 223t63 223l-119 119l140 141l129 -129q96 49 213 49q119 0 213 -49l129 129l141 -141l-121 -121q63 -96 64 -221q0 -129 -64 -221l121 -119l-141 -141l-127 126q-96 -49 -215 -49t-213 49l-127 -126zM399 717q0 -78 48.5 -129t134.5 -51 t134 51t48 129t-48 129t-134 51t-134.5 -51t-48.5 -129z" />
<glyph unicode="&#xa5;" horiz-adv-x="1462" d="M55 1393h330l344 -615l346 615h330l-412 -680h221v-197h-331v-106h331v-197h-331v-213h-305v213h-330v197h330v106h-330v197h219z" />
<glyph unicode="&#xa6;" horiz-adv-x="561" d="M137 -205v762h287v-762h-287zM137 897v762h287v-762h-287z" />
<glyph unicode="&#xa7;" horiz-adv-x="1069" d="M96 668q0 166 146 264q-125 84 -125 227q0 158 118.5 230.5t299.5 72.5q184 0 356 -84v-225q-66 39 -161 65.5t-175 26.5q-147 0 -147 -78q0 -25 15 -44t60 -38.5t67.5 -26.5t96.5 -28l21 -6q145 -43 229 -109.5t84 -191.5q0 -156 -143 -258q118 -89 118 -234 q0 -111 -64.5 -180t-159.5 -96t-222 -27q-215 0 -371 92v228q158 -100 357 -101q86 0 128 15.5t42 60.5q0 63 -220 127q-16 6 -24 8q-72 23 -121 44.5t-100 56.5t-78 88t-27 121zM358 721q0 -45 37 -70.5t115 -54.5q35 -10 117 -35q80 49 80 121q0 43 -35 69.5t-101 53.5 q-80 27 -125 41q-88 -43 -88 -125z" />
<glyph unicode="&#xa8;" horiz-adv-x="708" d="M-16 1705.5q0 63.5 45 109t108.5 45.5t107.5 -45.5t44 -109t-44 -107.5t-107.5 -44t-108.5 44t-45 107.5zM422 1705.5q0 63.5 45 109t108.5 45.5t107.5 -45.5t44 -109t-44 -107.5t-107.5 -44t-108.5 44t-45 107.5z" />
<glyph unicode="&#xa9;" horiz-adv-x="1732" d="M82 717q0 178 67.5 323.5t179 235.5t250 138t288 48t287.5 -48t250 -138t179.5 -235.5t67.5 -323.5t-67.5 -323.5t-179.5 -235.5t-250 -138.5t-287.5 -48.5t-288 48.5t-250 138.5t-179 235.5t-67.5 323.5zM184 717q0 -305 204 -478t478.5 -173t478 173t203.5 478 t-203.5 478t-478 173t-478.5 -173t-204 -478zM467 700q0 215 132 325t319 110q154 0 266 -70v-182q-109 61 -226 61q-106 0 -181 -55t-75 -176q0 -119 73 -171.5t179 -52.5q117 0 230 62v-182q-133 -70 -291 -70q-78 0 -150.5 23.5t-136 70.5t-101.5 126t-38 181z" />
<glyph unicode="&#xab;" horiz-adv-x="1144" d="M59 465v53l265 371h286l-278 -397l278 -398h-286zM526 465v53l265 371h286l-278 -397l278 -398h-286z" />
<glyph unicode="&#xac;" horiz-adv-x="1181" d="M96 741v242h959v-496h-244v254h-715z" />
<glyph unicode="&#xad;" horiz-adv-x="987" d="M113 379v239h761v-239h-761z" />
<glyph unicode="&#xae;" horiz-adv-x="1718" d="M82 716.5q0 231.5 114.5 405.5t288.5 257t375 83q199 0 373 -83t288.5 -257t114.5 -405.5t-114.5 -405.5t-288.5 -257t-373 -83q-201 0 -375 83t-288.5 257t-114.5 405.5zM184 717q0 -307 199 -477t477 -170q178 0 328.5 69.5t249 220t98.5 357.5t-98.5 357.5t-249 220 t-328.5 69.5q-279 0 -477.5 -170t-198.5 -477zM541 326v800h387q129 0 224 -67.5t95 -206.5q0 -96 -47 -158.5t-123 -85.5l217 -282h-223l-197 262h-18h-119v-262h-196zM737 748h166q135 0 135 96q0 98 -135 98h-166v-194z" />
<glyph unicode="&#xaf;" horiz-adv-x="737" d="M35 1571v225h667v-225h-667z" />
<glyph unicode="&#xb0;" horiz-adv-x="851" d="M63 1120q0 158 105.5 250t257.5 92t256 -92t104 -250q0 -164 -103 -256t-257 -92t-258.5 92t-104.5 256zM274 1120q0 -70 42 -111.5t112 -41.5t110 41t40 112q0 68 -40 108t-110 40t-112 -40t-42 -108z" />
<glyph unicode="&#xb1;" horiz-adv-x="1179" d="M111 0v242h958v-242h-958zM111 727v242h358v358h242v-358h358v-242h-358v-358h-242v358h-358z" />
<glyph unicode="&#xb4;" horiz-adv-x="491" d="M18 1565l185 303h311l-221 -303h-275z" />
<glyph unicode="&#xb6;" horiz-adv-x="1497" d="M59 991q0 207 126 325t345 118h816v-1885h-293v1608h-230v-1608h-293v998q-219 0 -345 117.5t-126 326.5z" />
<glyph unicode="&#xb7;" horiz-adv-x="540" d="M96 489.5q0 81.5 50.5 124.5t124 43t122.5 -43t49 -125q0 -84 -49 -125.5t-122.5 -41.5t-124 43t-50.5 124.5z" />
<glyph unicode="&#xb8;" horiz-adv-x="454" d="M-12 -264q70 -41 164 -41q127 0 127 61q0 37 -56.5 50.5t-140.5 3.5l45 190h199l-27 -98q193 -18 193 -178q2 -100 -86.5 -151.5t-209 -51.5t-208.5 39v176z" />
<glyph unicode="&#xbb;" horiz-adv-x="1144" d="M68 94l278 398l-278 397h286l264 -371v-53l-264 -371h-286zM535 94l278 398l-278 397h286l264 -371v-53l-264 -371h-286z" />
<glyph unicode="&#xbc;" horiz-adv-x="1875" d="M94 557v172h182v465l-176 -57v178l226 78h143v-664h154v-172h-529zM391 -29l938 1491h92l-938 -1491h-92zM1069 147v166l424 523h199v-521h120v-168h-120v-147h-189v147h-434zM1278 315h225v277z" />
<glyph unicode="&#xbd;" horiz-adv-x="1800" d="M86 557v172h182v465l-176 -57v178l225 78h144v-664h153v-172h-528zM383 -29l938 1491h92l-938 -1491h-92zM1102 0v88q0 57 19.5 107.5t39 81t68.5 68.5t68.5 49.5t78.5 45.5q8 6 34 20.5t35 19.5t27.5 17.5t25.5 20.5t17.5 21.5t13.5 26t3 28.5q0 86 -129 86 q-139 0 -275 -102v186q129 90 293 90q137 0 222.5 -63.5t85.5 -188.5q0 -96 -60.5 -163.5t-163.5 -129.5q-53 -31 -71.5 -41t-51 -31.5t-45 -37t-12.5 -29.5l406 2v-172h-629z" />
<glyph unicode="&#xbe;" horiz-adv-x="1988" d="M86 606v185q121 -70 272 -66q168 0 168 98q0 88 -135 88h-139l2 170h115q125 0 125 80q0 86 -146 86q-129 0 -248 -78v185q125 68 275 67q135 0 220 -60t85 -171q0 -133 -117 -180q152 -51 152 -213q0 -125 -98.5 -186.5t-242 -61.5t-288.5 57zM510 -29l938 1491h92 l-938 -1491h-92zM1182 147v166l424 523h198v-521h121v-168h-121v-147h-188v147h-434zM1391 315h225v277z" />
<glyph unicode="&#xbf;" horiz-adv-x="1007" d="M55 -119q0 78 37 156t90.5 137t106.5 115.5t90 115t37 109.5h270q0 -88 -50 -175t-111.5 -146.5t-112 -127t-50.5 -118.5q0 -154 234 -154q172 0 346 101v-271q-190 -100 -397 -100q-213 0 -351.5 88t-138.5 270zM375 844q0 84 49 126t125 42q74 0 123 -43t49 -125 t-49 -124t-123 -42q-76 0 -125 42t-49 124z" />
<glyph unicode="&#xc0;" horiz-adv-x="1513" d="M6 0l586 1434h332l583 -1434h-317l-105 268h-655l-106 -268h-318zM438 1868h312l184 -303h-275zM526 522h463l-201 514q-20 57 -30 113q-13 -64 -33 -113z" />
<glyph unicode="&#xc1;" horiz-adv-x="1513" d="M6 0l586 1434h332l583 -1434h-317l-105 268h-655l-106 -268h-318zM526 522h463l-201 514q-20 57 -30 113q-13 -64 -33 -113zM575 1565l185 303h311l-221 -303h-275z" />
<glyph unicode="&#xc2;" horiz-adv-x="1513" d="M6 0l586 1434h332l583 -1434h-317l-105 268h-655l-106 -268h-318zM377 1550l254 318h252l254 -318h-271l-108 133l-109 -133h-272zM526 522h463l-201 514q-20 57 -30 113q-13 -64 -33 -113z" />
<glyph unicode="&#xc3;" horiz-adv-x="1513" d="M6 0l586 1434h332l583 -1434h-317l-105 268h-655l-106 -268h-318zM385 1540q-29 123 28.5 204t161.5 81q76 0 172.5 -43t120.5 -43q33 0 44.5 23.5t2.5 49.5h205q29 -123 -28.5 -203.5t-163.5 -80.5q-76 0 -172.5 43t-118.5 43q-33 0 -44 -23.5t-3 -50.5h-205zM526 522 h463l-201 514q-20 57 -30 113q-13 -64 -33 -113z" />
<glyph unicode="&#xc4;" horiz-adv-x="1513" d="M6 0l586 1434h332l583 -1434h-317l-105 268h-655l-106 -268h-318zM383 1705.5q0 63.5 45 109t108.5 45.5t107.5 -45.5t44 -109t-44 -107.5t-107.5 -44t-108.5 44t-45 107.5zM526 522h463l-201 514q-20 57 -30 113q-13 -64 -33 -113zM821 1705.5q0 63.5 45 109t108.5 45.5 t107.5 -45.5t44 -109t-44 -107.5t-107.5 -44t-108.5 44t-45 107.5z" />
<glyph unicode="&#xc5;" horiz-adv-x="1513" d="M6 0l586 1434h332l583 -1434h-317l-105 268h-655l-106 -268h-318zM498 1753q0 111 74.5 176.5t181 65.5t181.5 -65.5t75 -176.5q0 -115 -74 -181.5t-182 -66.5q-106 0 -181 66.5t-75 181.5zM526 522h463l-201 514q-20 57 -30 113q-13 -64 -33 -113zM670 1751 q0 -39 24.5 -63.5t61.5 -24.5t61.5 24.5t24.5 63.5t-24.5 62.5t-61.5 23.5t-61.5 -23.5t-24.5 -62.5z" />
<glyph unicode="&#xc6;" horiz-adv-x="2072" d="M-33 0l936 1434h1069v-271h-653v-305h592v-268h-592v-320h666v-270h-973v276h-545l-180 -276h-320zM621 522h389v598z" />
<glyph unicode="&#xc7;" horiz-adv-x="1339" d="M74 700q0 188 66.5 339t176 241t244.5 136t283 46q225 0 409 -92v-293q-145 113 -358 113q-209 0 -357.5 -124t-148.5 -366q0 -115 43 -203.5t116 -142t162 -81t185 -27.5q238 0 369 119v-302q-137 -68 -306 -86l-20 -75q193 -18 192 -178q2 -100 -86 -151.5 t-208.5 -51.5t-208.5 39v176q70 -41 164 -41q127 0 127 61q0 37 -56.5 50.5t-140.5 3.5l39 165q-135 12 -256 63.5t-218.5 137.5t-154.5 222.5t-57 301.5z" />
<glyph unicode="&#xc8;" horiz-adv-x="1265" d="M154 0v1434h1009v-271h-702v-305h641v-268h-641v-320h715v-270h-1022zM360 1868h312l184 -303h-274z" />
<glyph unicode="&#xc9;" horiz-adv-x="1265" d="M154 0v1434h1009v-271h-702v-305h641v-268h-641v-320h715v-270h-1022zM498 1565l184 303h311l-221 -303h-274z" />
<glyph unicode="&#xca;" horiz-adv-x="1265" d="M154 0v1434h1009v-271h-702v-305h641v-268h-641v-320h715v-270h-1022zM299 1550l254 318h252l254 -318h-271l-108 133l-109 -133h-272z" />
<glyph unicode="&#xcb;" horiz-adv-x="1265" d="M154 0v1434h1009v-271h-702v-305h641v-268h-641v-320h715v-270h-1022zM305 1705.5q0 63.5 45 109t108.5 45.5t107.5 -45.5t44 -109t-44 -107.5t-107.5 -44t-108.5 44t-45 107.5zM743 1705.5q0 63.5 45.5 109t109 45.5t107.5 -45.5t44 -109t-44 -107.5t-107.5 -44t-109 44 t-45.5 107.5z" />
<glyph unicode="&#xcc;" horiz-adv-x="614" d="M-8 1868h311l184 -303h-274zM154 0v1434h307v-1434h-307z" />
<glyph unicode="&#xcd;" horiz-adv-x="614" d="M129 1565l184 303h312l-222 -303h-274zM154 0v1434h307v-1434h-307z" />
<glyph unicode="&#xce;" horiz-adv-x="614" d="M-70 1550l254 318h252l254 -318h-270l-109 133l-108 -133h-273zM154 0v1434h307v-1434h-307z" />
<glyph unicode="&#xcf;" horiz-adv-x="614" d="M-63 1705.5q0 63.5 45 109t108.5 45.5t107.5 -45.5t44 -109t-44 -107.5t-107.5 -44t-108.5 44t-45 107.5zM154 0v1434h307v-1434h-307zM375 1705.5q0 63.5 45 109t108.5 45.5t107.5 -45.5t44 -109t-44 -107.5t-107.5 -44t-108.5 44t-45 107.5z" />
<glyph unicode="&#xd0;" horiz-adv-x="1540" d="M25 602v227h151v605h537q369 0 560 -196t191 -521.5t-191.5 -521t-559.5 -195.5h-537v602h-151zM483 270h230q215 0 326.5 113t111.5 334t-111.5 333.5t-326.5 112.5h-230v-334h318v-227h-318v-332z" />
<glyph unicode="&#xd1;" horiz-adv-x="1564" d="M154 0v1434h288l668 -936q-6 88 -6 196v740h307v-1434h-289l-667 936q6 -88 6 -197v-739h-307zM412 1540q-29 123 28.5 204t161.5 81q76 0 172 -43t121 -43q33 0 44 23.5t3 49.5h205q29 -123 -28.5 -203.5t-164.5 -80.5q-76 0 -172 43t-118 43q-33 0 -44.5 -23.5 t-3.5 -50.5h-204z" />
<glyph unicode="&#xd2;" horiz-adv-x="1671" d="M74 716.5q0 147.5 48 280.5t141 237.5t240.5 166t332 61.5t332 -61.5t240.5 -166t141 -237.5t48 -280.5t-48 -280.5t-141 -237.5t-240.5 -166t-332 -61.5t-332 61.5t-240.5 166t-141 237.5t-48 280.5zM387 716.5q0 -198.5 117 -329.5t332 -131q213 0 329.5 131 t116.5 329.5t-116.5 330t-329.5 131.5q-215 0 -332 -131.5t-117 -330zM518 1868h311l185 -303h-275z" />
<glyph unicode="&#xd3;" horiz-adv-x="1671" d="M74 716.5q0 147.5 48 280.5t141 237.5t240.5 166t332 61.5t332 -61.5t240.5 -166t141 -237.5t48 -280.5t-48 -280.5t-141 -237.5t-240.5 -166t-332 -61.5t-332 61.5t-240.5 166t-141 237.5t-48 280.5zM387 716.5q0 -198.5 117 -329.5t332 -131q213 0 329.5 131 t116.5 329.5t-116.5 330t-329.5 131.5q-215 0 -332 -131.5t-117 -330zM655 1565l185 303h311l-221 -303h-275z" />
<glyph unicode="&#xd4;" horiz-adv-x="1671" d="M74 716.5q0 147.5 48 280.5t141 237.5t240.5 166t332 61.5t332 -61.5t240.5 -166t141 -237.5t48 -280.5t-48 -280.5t-141 -237.5t-240.5 -166t-332 -61.5t-332 61.5t-240.5 166t-141 237.5t-48 280.5zM387 716.5q0 -198.5 117 -329.5t332 -131q213 0 329.5 131 t116.5 329.5t-116.5 330t-329.5 131.5q-215 0 -332 -131.5t-117 -330zM457 1550l254 318h252l254 -318h-271l-108 133l-109 -133h-272z" />
<glyph unicode="&#xd5;" horiz-adv-x="1671" d="M74 716.5q0 147.5 48 280.5t141 237.5t240.5 166t332 61.5t332 -61.5t240.5 -166t141 -237.5t48 -280.5t-48 -280.5t-141 -237.5t-240.5 -166t-332 -61.5t-332 61.5t-240.5 166t-141 237.5t-48 280.5zM387 716.5q0 -198.5 117 -329.5t332 -131q213 0 329.5 131 t116.5 329.5t-116.5 330t-329.5 131.5q-215 0 -332 -131.5t-117 -330zM465 1540q-29 123 28.5 204t161.5 81q76 0 172.5 -43t120.5 -43q33 0 44.5 23.5t2.5 49.5h205q29 -123 -28.5 -203.5t-163.5 -80.5q-76 0 -172.5 43t-118.5 43q-33 0 -44 -23.5t-3 -50.5h-205z" />
<glyph unicode="&#xd6;" horiz-adv-x="1671" d="M74 716.5q0 147.5 48 280.5t141 237.5t240.5 166t332 61.5t332 -61.5t240.5 -166t141 -237.5t48 -280.5t-48 -280.5t-141 -237.5t-240.5 -166t-332 -61.5t-332 61.5t-240.5 166t-141 237.5t-48 280.5zM387 716.5q0 -198.5 117 -329.5t332 -131q213 0 329.5 131 t116.5 329.5t-116.5 330t-329.5 131.5q-215 0 -332 -131.5t-117 -330zM463 1705.5q0 63.5 45 109t108.5 45.5t107.5 -45.5t44 -109t-44 -107.5t-107.5 -44t-108.5 44t-45 107.5zM901 1705.5q0 63.5 45 109t108.5 45.5t107.5 -45.5t44 -109t-44 -107.5t-107.5 -44t-108.5 44 t-45 107.5z" />
<glyph unicode="&#xd7;" horiz-adv-x="1032" d="M100 461l256 258l-256 256l160 158l256 -256l256 256l160 -158l-256 -256l256 -258l-160 -158l-256 256l-256 -256z" />
<glyph unicode="&#xd8;" horiz-adv-x="1671" d="M74 717q0 147 48 280t141 237.5t240.5 166t332.5 61.5q207 0 368 -78l107 148h202l-170 -236q125 -104 189.5 -255.5t64.5 -323.5q0 -147 -48 -280.5t-141 -238t-240.5 -166t-331.5 -61.5q-217 0 -383 86l-111 -155h-205l178 245q-119 104 -180 253t-61 317zM387 717 q0 -193 109 -318l532 742q-79 37 -192 37q-215 0 -332 -131.5t-117 -329.5zM627 299q90 -43 209 -43q213 0 329.5 131t116.5 330q0 205 -117 330z" />
<glyph unicode="&#xd9;" horiz-adv-x="1536" d="M139 539v895h307v-879q0 -307 322 -307q324 0 324 307v879h305v-895q0 -123 -35 -221.5t-94.5 -162t-141.5 -106.5t-171 -60.5t-187 -17.5t-187 17.5t-171 60.5t-141.5 106.5t-94.5 162t-35 221.5zM449 1868h311l184 -303h-274z" />
<glyph unicode="&#xda;" horiz-adv-x="1536" d="M139 539v895h307v-879q0 -307 322 -307q324 0 324 307v879h305v-895q0 -123 -35 -221.5t-94.5 -162t-141.5 -106.5t-171 -60.5t-187 -17.5t-187 17.5t-171 60.5t-141.5 106.5t-94.5 162t-35 221.5zM586 1565l184 303h311l-221 -303h-274z" />
<glyph unicode="&#xdb;" horiz-adv-x="1536" d="M139 539v895h307v-879q0 -307 322 -307q324 0 324 307v879h305v-895q0 -123 -35 -221.5t-94.5 -162t-141.5 -106.5t-171 -60.5t-187 -17.5t-187 17.5t-171 60.5t-141.5 106.5t-94.5 162t-35 221.5zM387 1550l254 318h252l254 -318h-270l-109 133l-109 -133h-272z" />
<glyph unicode="&#xdc;" horiz-adv-x="1536" d="M139 539v895h307v-879q0 -307 322 -307q324 0 324 307v879h305v-895q0 -123 -35 -221.5t-94.5 -162t-141.5 -106.5t-171 -60.5t-187 -17.5t-187 17.5t-171 60.5t-141.5 106.5t-94.5 162t-35 221.5zM393 1705.5q0 63.5 45 109t108.5 45.5t107.5 -45.5t44 -109t-44 -107.5 t-107.5 -44t-108.5 44t-45 107.5zM831 1705.5q0 63.5 45.5 109t109 45.5t107.5 -45.5t44 -109t-44 -107.5t-107.5 -44t-109 44t-45.5 107.5z" />
<glyph unicode="&#xdd;" horiz-adv-x="1437" d="M6 1434h346l367 -643l366 643h347l-560 -926v-508h-305v508zM537 1565l184 303h311l-221 -303h-274z" />
<glyph unicode="&#xde;" horiz-adv-x="1361" d="M154 0v1434h307v-236h233q618 0 619 -481q0 -477 -619 -481h-233v-236h-307zM461 506h248q291 0 290.5 211t-290.5 211h-248v-422z" />
<glyph unicode="&#xdf;" d="M121 0v1004q0 219 118.5 337.5t338.5 120.5q209 2 316 -96t107 -217q0 -76 -39.5 -145.5t-79.5 -125t-40 -94.5q0 -43 50 -97t110.5 -102t110.5 -127t50 -165q0 -158 -119.5 -240t-285.5 -82q-131 0 -242 49v224q94 -47 184 -47q78 0 126 30.5t48 89.5q0 43 -45 98.5 t-100 101.5t-100 107.5t-45 118.5q0 74 73.5 175.5t73.5 183.5q0 68 -42 102.5t-111 34.5q-80 0 -126 -44t-46 -124v-1071h-285z" />
<glyph unicode="&#xe0;" horiz-adv-x="1136" d="M49 272q0 117 69.5 195t162 105.5t200.5 27.5q121 0 234 -27v35q0 76 -59.5 121t-172.5 45q-164 0 -348 -74v246q197 66 381 66q483 0 483 -445v-313q0 -66 70 -66q29 0 53 9v-187q-78 -29 -157 -28q-156 0 -217 110q-154 -121 -355 -121q-145 0 -244.5 81t-99.5 220z M201 1432h311l184 -304h-274zM340 295q0 -53 44 -87t110 -34q129 0 221 80v154q-94 22 -168 22q-88 0 -147.5 -32.5t-59.5 -102.5z" />
<glyph unicode="&#xe1;" horiz-adv-x="1136" d="M49 272q0 117 69.5 195t162 105.5t200.5 27.5q121 0 234 -27v35q0 76 -59.5 121t-172.5 45q-164 0 -348 -74v246q197 66 381 66q483 0 483 -445v-313q0 -66 70 -66q29 0 53 9v-187q-78 -29 -157 -28q-156 0 -217 110q-154 -121 -355 -121q-145 0 -244.5 81t-99.5 220z M338 1128l184 304h312l-222 -304h-274zM340 295q0 -53 44 -87t110 -34q129 0 221 80v154q-94 22 -168 22q-88 0 -147.5 -32.5t-59.5 -102.5z" />
<glyph unicode="&#xe2;" horiz-adv-x="1136" d="M49 272q0 117 69.5 195t162 105.5t200.5 27.5q121 0 234 -27v35q0 76 -59.5 121t-172.5 45q-164 0 -348 -74v246q197 66 381 66q483 0 483 -445v-313q0 -66 70 -66q29 0 53 9v-187q-78 -29 -157 -28q-156 0 -217 110q-154 -121 -355 -121q-145 0 -244.5 81t-99.5 220z M139 1114l254 318h252l254 -318h-270l-109 133l-108 -133h-273zM340 295q0 -53 44 -87t110 -34q129 0 221 80v154q-94 22 -168 22q-88 0 -147.5 -32.5t-59.5 -102.5z" />
<glyph unicode="&#xe3;" horiz-adv-x="1136" d="M49 272q0 117 69.5 195t162 105.5t200.5 27.5q121 0 234 -27v35q0 76 -59.5 121t-172.5 45q-164 0 -348 -74v246q197 66 381 66q483 0 483 -445v-313q0 -66 70 -66q29 0 53 9v-187q-78 -29 -157 -28q-156 0 -217 110q-154 -121 -355 -121q-145 0 -244.5 81t-99.5 220z M147 1104q-29 123 28.5 204t162.5 81q76 0 172 -43t121 -43q33 0 44 23.5t3 49.5h205q29 -123 -28.5 -203.5t-164.5 -80.5q-76 0 -172 43t-119 43q-33 0 -44 -24t-3 -50h-205zM340 295q0 -53 44 -87t110 -34q129 0 221 80v154q-94 22 -168 22q-88 0 -147.5 -32.5 t-59.5 -102.5z" />
<glyph unicode="&#xe4;" horiz-adv-x="1136" d="M49 272q0 117 69.5 195t162 105.5t200.5 27.5q121 0 234 -27v35q0 76 -59.5 121t-172.5 45q-164 0 -348 -74v246q197 66 381 66q483 0 483 -445v-313q0 -66 70 -66q29 0 53 9v-187q-78 -29 -157 -28q-156 0 -217 110q-154 -121 -355 -121q-145 0 -244.5 81t-99.5 220z M145 1269.5q0 63.5 45.5 108.5t108.5 45t107.5 -45t44.5 -108.5t-44.5 -107.5t-107.5 -44t-108.5 44t-45.5 107.5zM340 295q0 -53 44 -87t110 -34q129 0 221 80v154q-94 22 -168 22q-88 0 -147.5 -32.5t-59.5 -102.5zM584 1269.5q0 63.5 45 108.5t108.5 45t107.5 -45 t44 -108.5t-44 -107.5t-107.5 -44t-108.5 44t-45 107.5z" />
<glyph unicode="&#xe5;" horiz-adv-x="1136" d="M49 272q0 117 69.5 195t162 105.5t200.5 27.5q121 0 234 -27v35q0 76 -59.5 121t-172.5 45q-164 0 -348 -74v246q197 66 381 66q483 0 483 -445v-313q0 -66 70 -66q29 0 53 9v-187q-78 -29 -157 -28q-156 0 -217 110q-154 -121 -355 -121q-145 0 -244.5 81t-99.5 220z M260 1317q0 111 75 176.5t181.5 65.5t181 -65.5t74.5 -176.5q0 -115 -73.5 -181.5t-182.5 -66.5q-106 0 -181 66.5t-75 181.5zM340 295q0 -53 44 -87t110 -34q129 0 221 80v154q-94 22 -168 22q-88 0 -147.5 -32.5t-59.5 -102.5zM432 1315q0 -39 24.5 -63.5t61.5 -24.5 t61.5 24.5t24.5 63.5t-24.5 62.5t-61.5 23.5t-61.5 -23.5t-24.5 -62.5z" />
<glyph unicode="&#xe6;" horiz-adv-x="1777" d="M49 272q0 92 38 159t105.5 102.5t144.5 51t167 15.5q137 0 241 -27v33q0 166 -258 166q-172 0 -352 -76v250q197 66 383 66q272 0 377 -152q139 152 352 152q186 0 304 -95.5t152 -232.5t-1 -289h-692q23 -98 119 -148t227 -50q164 0 295 59v-221q-150 -63 -361 -64 q-266 0 -407 158q-201 -158 -473 -158q-154 0 -257.5 80t-103.5 221zM342 295q0 -59 44 -89t114 -30q160 0 291 103q-23 59 -29 135q-121 18 -191 18q-98 0 -163.5 -32.5t-65.5 -104.5zM1008 578h438q10 72 -39 143.5t-168 71.5q-96 0 -162.5 -57.5t-68.5 -157.5z" />
<glyph unicode="&#xe7;" horiz-adv-x="1003" d="M66 477q0 135 48 241.5t128 169t176 94.5t203 32q170 0 303 -72v-250q-115 74 -262 74q-129 0 -217.5 -67.5t-88.5 -206.5q0 -133 88 -204t213 -71q158 0 277 72v-252q-109 -45 -221 -57l-21 -78q190 -18 191 -178q2 -100 -86 -151.5t-209 -51.5t-209 39v176 q70 -41 164 -41q127 0 127 61q0 37 -56.5 50.5t-140.5 3.5l41 167q-193 25 -320.5 152t-127.5 348z" />
<glyph unicode="&#xe8;" horiz-adv-x="1120" d="M66 492q0 133 47 236t123.5 162.5t161.5 90.5t173 31q147 0 255 -55.5t159 -142.5t70.5 -196.5t-11.5 -218.5h-692q23 -102 119 -152t227 -50q162 0 297 59v-223q-145 -61 -360 -62q-246 0 -407.5 137.5t-161.5 383.5zM256 1417h311l185 -303h-275zM350 584h438 q10 68 -39 139.5t-167 71.5q-94 0 -162 -56.5t-70 -154.5z" />
<glyph unicode="&#xe9;" horiz-adv-x="1120" d="M66 492q0 133 47 236t123.5 162.5t161.5 90.5t173 31q147 0 255 -55.5t159 -142.5t70.5 -196.5t-11.5 -218.5h-692q23 -102 119 -152t227 -50q162 0 297 59v-223q-145 -61 -360 -62q-246 0 -407.5 137.5t-161.5 383.5zM350 584h438q10 68 -39 139.5t-167 71.5 q-94 0 -162 -56.5t-70 -154.5zM393 1114l185 303h311l-221 -303h-275z" />
<glyph unicode="&#xea;" horiz-adv-x="1120" d="M66 492q0 133 47 236t123.5 162.5t161.5 90.5t173 31q147 0 255 -55.5t159 -142.5t70.5 -196.5t-11.5 -218.5h-692q23 -102 119 -152t227 -50q162 0 297 59v-223q-145 -61 -360 -62q-246 0 -407.5 137.5t-161.5 383.5zM195 1100l254 317h251l254 -317h-270l-109 133 l-108 -133h-272zM350 584h438q10 68 -39 139.5t-167 71.5q-94 0 -162 -56.5t-70 -154.5z" />
<glyph unicode="&#xeb;" horiz-adv-x="1120" d="M66 492q0 133 47 236t123.5 162.5t161.5 90.5t173 31q147 0 255 -55.5t159 -142.5t70.5 -196.5t-11.5 -218.5h-692q23 -102 119 -152t227 -50q162 0 297 59v-223q-145 -61 -360 -62q-246 0 -407.5 137.5t-161.5 383.5zM201 1255.5q0 63.5 45 108.5t108.5 45t107.5 -45 t44 -108.5t-44 -107.5t-107.5 -44t-108.5 44t-45 107.5zM350 584h438q10 68 -39 139.5t-167 71.5q-94 0 -162 -56.5t-70 -154.5zM639 1255.5q0 63.5 45 108.5t108.5 45t107.5 -45t44 -108.5t-44 -107.5t-107.5 -44t-108.5 44t-45 107.5z" />
<glyph unicode="&#xec;" horiz-adv-x="530" d="M-2 1417h303l131 -303h-268zM123 0v983h285v-983h-285z" />
<glyph unicode="&#xed;" horiz-adv-x="530" d="M86 1114l184 303h312l-222 -303h-274zM123 0v983h285v-983h-285z" />
<glyph unicode="&#xee;" horiz-adv-x="530" d="M-68 1100l209 311h252l211 -311h-256l-80 125l-82 -125h-254zM123 0v983h285v-983h-285z" />
<glyph unicode="&#xef;" horiz-adv-x="530" d="M-68 1255.5q0 59.5 42 101.5t99.5 42t100.5 -42.5t43 -101.5q0 -57 -42 -99t-101 -42q-57 0 -99.5 41t-42.5 100.5zM123 0v983h285v-983h-285zM315 1255.5q0 59.5 42 101.5t102 42q57 0 99 -42t42 -101.5t-42 -100.5t-99 -41q-59 0 -101.5 41t-42.5 100.5z" />
<glyph unicode="&#xf0;" horiz-adv-x="1198" d="M68 444q0 205 122.5 329t305.5 124q111 0 201.5 -41t136.5 -111q0 16 -5 54q-39 223 -233 340l-164 -164l-131 131l113 111q-100 23 -207 22v215q201 0 379 -63l153 153l131 -131l-110 -110q358 -236 358 -736q0 -305 -144.5 -450.5t-381.5 -145.5q-229 0 -376.5 125 t-147.5 348zM358 444q0 -94 58.5 -162.5t175.5 -68.5q115 0 170 64.5t61 156.5q0 94 -61.5 166t-175.5 72q-111 0 -169.5 -68t-58.5 -160z" />
<glyph unicode="&#xf1;" d="M121 0v983h252v-125q133 154 327 154q188 0 294 -114t106 -290v-608h-285v571q0 96 -52 145.5t-138 49.5q-133 0 -219 -125v-641h-285zM223 1090q-29 123 28.5 203.5t162.5 80.5q76 0 172 -43t121 -43q33 0 44 23.5t3 50.5h204q29 -123 -28.5 -204t-163.5 -81 q-76 0 -172 43t-119 43q-33 0 -44 -23.5t-3 -49.5h-205z" />
<glyph unicode="&#xf2;" horiz-adv-x="1216" d="M66 491.5q0 245.5 157.5 383t384.5 137.5q229 0 386 -137.5t157 -383t-156.5 -383t-386.5 -137.5q-227 0 -384.5 137.5t-157.5 383zM293 1405h311l184 -303h-274zM356 491.5q0 -116.5 66.5 -191.5t185.5 -75t186.5 75t67.5 191.5t-67.5 191.5t-186.5 75t-185.5 -75 t-66.5 -191.5z" />
<glyph unicode="&#xf3;" horiz-adv-x="1216" d="M66 491.5q0 245.5 157.5 383t384.5 137.5q229 0 386 -137.5t157 -383t-156.5 -383t-386.5 -137.5q-227 0 -384.5 137.5t-157.5 383zM356 491.5q0 -116.5 66.5 -191.5t185.5 -75t186.5 75t67.5 191.5t-67.5 191.5t-186.5 75t-185.5 -75t-66.5 -191.5zM430 1102l184 303 h312l-221 -303h-275z" />
<glyph unicode="&#xf4;" horiz-adv-x="1216" d="M66 491.5q0 245.5 157.5 383t384.5 137.5q229 0 386 -137.5t157 -383t-156.5 -383t-386.5 -137.5q-227 0 -384.5 137.5t-157.5 383zM231 1087l254 318h252l254 -318h-270l-109 134l-108 -134h-273zM356 491.5q0 -116.5 66.5 -191.5t185.5 -75t186.5 75t67.5 191.5 t-67.5 191.5t-186.5 75t-185.5 -75t-66.5 -191.5z" />
<glyph unicode="&#xf5;" horiz-adv-x="1216" d="M66 491.5q0 245.5 157.5 383t384.5 137.5q229 0 386 -137.5t157 -383t-156.5 -383t-386.5 -137.5q-227 0 -384.5 137.5t-157.5 383zM240 1077q-29 123 28.5 204t161.5 81q76 0 172 -43t121 -43q33 0 44 23.5t3 50.5h205q29 -123 -28.5 -204t-164.5 -81q-76 0 -172 43 t-118 43q-33 0 -44.5 -23.5t-3.5 -50.5h-204zM356 491.5q0 -116.5 66.5 -191.5t185.5 -75t186.5 75t67.5 191.5t-67.5 191.5t-186.5 75t-185.5 -75t-66.5 -191.5z" />
<glyph unicode="&#xf6;" horiz-adv-x="1216" d="M66 491.5q0 245.5 157.5 383t384.5 137.5q229 0 386 -137.5t157 -383t-156.5 -383t-386.5 -137.5q-227 0 -384.5 137.5t-157.5 383zM238 1243.5q0 63.5 45 108.5t108.5 45t107.5 -45t44 -108.5t-44 -107.5t-107.5 -44t-108.5 44t-45 107.5zM356 491.5 q0 -116.5 66.5 -191.5t185.5 -75t186.5 75t67.5 191.5t-67.5 191.5t-186.5 75t-185.5 -75t-66.5 -191.5zM676 1243.5q0 63.5 45 108.5t108.5 45t107.5 -45t44 -108.5t-44 -107.5t-107.5 -44t-108.5 44t-45 107.5z" />
<glyph unicode="&#xf7;" horiz-adv-x="1142" d="M80 596v242h983v-242h-983zM399 260q0 82 50.5 124t124 42t122.5 -42t49 -124q0 -84 -49 -127t-122.5 -43t-124 43t-50.5 127zM399 1176q0 82 50.5 123.5t124 41.5t122.5 -41.5t49 -123.5q0 -84 -49 -127t-122.5 -43t-124 43t-50.5 127z" />
<glyph unicode="&#xf8;" horiz-adv-x="1216" d="M66 492q0 246 157.5 383t384.5 137q131 0 240 -45l94 145h123l-125 -197q211 -139 211 -423q0 -246 -156.5 -383.5t-386.5 -137.5q-129 0 -241 47l-95 -145h-122l124 197q-209 141 -208 422zM356 492q0 -119 66 -191l285 440q-50 17 -99 17q-119 0 -185.5 -75t-66.5 -191 zM508 242q49 -16 100 -17q119 0 186.5 75t67.5 192q0 119 -69 192z" />
<glyph unicode="&#xf9;" d="M109 375v608h284v-571q0 -96 49.5 -145.5t139.5 -49.5q131 0 221 125v641h284v-983h-251v125q-133 -154 -328 -154q-193 0 -296 113t-103 291zM285 1417h311l184 -303h-274z" />
<glyph unicode="&#xfa;" d="M109 375v608h284v-571q0 -96 49.5 -145.5t139.5 -49.5q131 0 221 125v641h284v-983h-251v125q-133 -154 -328 -154q-193 0 -296 113t-103 291zM422 1114l184 303h312l-222 -303h-274z" />
<glyph unicode="&#xfb;" d="M109 375v608h284v-571q0 -96 49.5 -145.5t139.5 -49.5q131 0 221 125v641h284v-983h-251v125q-133 -154 -328 -154q-193 0 -296 113t-103 291zM223 1100l254 317h252l254 -317h-270l-109 133l-108 -133h-273z" />
<glyph unicode="&#xfc;" d="M109 375v608h284v-571q0 -96 49.5 -145.5t139.5 -49.5q131 0 221 125v641h284v-983h-251v125q-133 -154 -328 -154q-193 0 -296 113t-103 291zM229 1255.5q0 63.5 45 108.5t108.5 45t108 -45t44.5 -108.5t-44.5 -107.5t-108 -44t-108.5 44t-45 107.5zM668 1255.5 q0 63.5 45 108.5t108.5 45t107.5 -45t44 -108.5t-44 -107.5t-107.5 -44t-108.5 44t-45 107.5z" />
<glyph unicode="&#xfd;" horiz-adv-x="1153" d="M6 983h301l287 -664l244 664h295l-437 -1102q-145 -358 -424 -358q-59 0 -153 22v236q68 -14 117 -14q156 0 233 215l2 4zM379 1114l184 303h311l-221 -303h-274z" />
<glyph unicode="&#xfe;" horiz-adv-x="1273" d="M121 -451v1885h285v-570q129 147 329 148q221 0 347 -155t126 -365q0 -215 -129 -368t-344 -153q-203 0 -329 140v-562h-285zM403 383q35 -72 103.5 -118t155.5 -48q115 -2 185.5 77t70.5 197.5t-70 199.5t-186 81q-90 0 -159 -48t-100 -122v-219z" />
<glyph unicode="&#xff;" horiz-adv-x="1153" d="M6 983h301l287 -664l244 664h295l-437 -1102q-145 -358 -424 -358q-59 0 -153 22v236q68 -14 117 -14q156 0 233 215l2 4zM186 1255.5q0 63.5 45 108.5t108.5 45t108 -45t44.5 -108.5t-44.5 -107.5t-108 -44t-108.5 44t-45 107.5zM625 1255.5q0 63.5 45 108.5t108.5 45 t107.5 -45t44 -108.5t-44 -107.5t-107.5 -44t-108.5 44t-45 107.5z" />
<glyph unicode="&#x152;" horiz-adv-x="2138" d="M74 716.5q0 147.5 48 280.5t141 237.5t240.5 166t332.5 61.5q139 0 247 -28h955v-271h-654v-305h592v-268h-592v-320h666v-270h-967q-109 -29 -247 -29q-184 0 -332 61.5t-241 166t-141 237.5t-48 280.5zM389 717q0 -209 130 -339t335 -130q113 0 229 43v854 q-119 41 -229 41q-205 0 -335 -129t-130 -340z" />
<glyph unicode="&#x153;" horiz-adv-x="1914" d="M66 491.5q0 245.5 151.5 383t364.5 137.5q133 0 241.5 -50.5t169.5 -146.5q137 197 387 197q188 0 307 -95.5t153 -233.5t-1 -288h-692q23 -98 120 -148t228 -50q162 0 293 59v-221q-147 -63 -358 -64q-296 0 -435 201q-127 -201 -411 -201q-213 0 -365.5 137.5 t-152.5 383zM356 491.5q0 -116.5 66.5 -191.5t185.5 -75t186.5 75t67.5 191.5t-67.5 191.5t-186.5 75t-185.5 -75t-66.5 -191.5zM1145 578h438q10 72 -39 143.5t-168 71.5q-96 0 -162.5 -57.5t-68.5 -157.5z" />
<glyph unicode="&#x178;" horiz-adv-x="1437" d="M6 1434h346l367 -643l366 643h347l-560 -926v-508h-305v508zM344 1705.5q0 63.5 45 109t108.5 45.5t107.5 -45.5t44 -109t-44 -107.5t-107.5 -44t-108.5 44t-45 107.5zM782 1705.5q0 63.5 45 109t108.5 45.5t107.5 -45.5t44 -109t-44 -107.5t-107.5 -44t-108.5 44 t-45 107.5z" />
<glyph unicode="&#x2c6;" horiz-adv-x="753" d="M-4 1550l254 318h252l254 -318h-271l-108 133l-109 -133h-272z" />
<glyph unicode="&#x2dc;" horiz-adv-x="819" d="M43 1540q-29 123 28.5 204t161.5 81q76 0 172.5 -43t120.5 -43q33 0 44.5 23.5t2.5 49.5h205q29 -123 -28.5 -203.5t-163.5 -80.5q-76 0 -172.5 43t-118.5 43q-33 0 -44 -23.5t-3 -50.5h-205z" />
<glyph unicode="&#x2000;" horiz-adv-x="997" />
<glyph unicode="&#x2001;" horiz-adv-x="1995" />
<glyph unicode="&#x2002;" horiz-adv-x="997" />
<glyph unicode="&#x2003;" horiz-adv-x="1995" />
<glyph unicode="&#x2004;" horiz-adv-x="665" />
<glyph unicode="&#x2005;" horiz-adv-x="498" />
<glyph unicode="&#x2006;" horiz-adv-x="332" />
<glyph unicode="&#x2007;" horiz-adv-x="332" />
<glyph unicode="&#x2008;" horiz-adv-x="249" />
<glyph unicode="&#x2009;" horiz-adv-x="399" />
<glyph unicode="&#x200a;" horiz-adv-x="110" />
<glyph unicode="&#x2010;" horiz-adv-x="987" d="M113 379v239h761v-239h-761z" />
<glyph unicode="&#x2011;" horiz-adv-x="987" d="M113 379v239h761v-239h-761z" />
<glyph unicode="&#x2012;" horiz-adv-x="987" d="M113 379v239h761v-239h-761z" />
<glyph unicode="&#x2013;" horiz-adv-x="1183" d="M113 379v239h958v-239h-958z" />
<glyph unicode="&#x2014;" horiz-adv-x="1585" d="M113 379v239h1360v-239h-1360z" />
<glyph unicode="&#x2018;" horiz-adv-x="540" d="M57 883l201 551h229l-129 -551h-301z" />
<glyph unicode="&#x2019;" horiz-adv-x="530" d="M72 883l129 551h301l-201 -551h-229z" />
<glyph unicode="&#x201a;" horiz-adv-x="536" d="M12 -297l129 551h301l-200 -551h-230z" />
<glyph unicode="&#x201c;" horiz-adv-x="933" d="M57 883l201 551h229l-129 -551h-301zM451 883l200 551h230l-129 -551h-301z" />
<glyph unicode="&#x201d;" horiz-adv-x="923" d="M72 883l129 551h301l-201 -551h-229zM465 883l129 551h301l-201 -551h-229z" />
<glyph unicode="&#x201e;" horiz-adv-x="929" d="M12 -297l129 551h301l-200 -551h-230zM406 -297l129 551h301l-201 -551h-229z" />
<glyph unicode="&#x2022;" horiz-adv-x="786" d="M135 717q0 123 74 185.5t184 62.5q113 0 185.5 -62.5t72.5 -185.5t-72.5 -186.5t-185.5 -63.5q-111 0 -184.5 63.5t-73.5 186.5z" />
<glyph unicode="&#x2026;" horiz-adv-x="1513" d="M82 141q0 82 50 125t124 43t123 -43t49 -125t-49 -125t-123 -43t-124 43t-50 125zM584 141q0 82 50 125t123.5 43t123 -43t49.5 -125t-49.5 -125t-123 -43t-123.5 43t-50 125zM1085 141q0 82 50.5 125t124 43t123 -43t49.5 -125t-49.5 -125t-123 -43t-124 43t-50.5 125z " />
<glyph unicode="&#x202f;" horiz-adv-x="399" />
<glyph unicode="&#x2039;" horiz-adv-x="677" d="M59 465v53l265 371h286l-278 -397l278 -398h-286z" />
<glyph unicode="&#x203a;" horiz-adv-x="677" d="M68 94l278 398l-278 397h286l264 -371v-53l-264 -371h-286z" />
<glyph unicode="&#x205f;" horiz-adv-x="498" />
<glyph unicode="&#x20ac;" horiz-adv-x="1488" d="M70 465v182h151v49v49h-151v183h182q72 240 269.5 366.5t447.5 126.5q227 0 411 -92v-293q-147 113 -358 113q-137 0 -251 -56.5t-173 -164.5h516v-183h-577q-2 -16 -2 -48.5t2 -49.5h577v-182h-518q59 -109 174 -164t250 -55q225 0 360 119v-302q-190 -92 -407 -92 q-252 0 -451.5 127t-269.5 367h-182z" />
<glyph unicode="&#x2122;" horiz-adv-x="1394" d="M78 1290v144h473v-144h-158v-385h-157v385h-158zM621 905v529h145l174 -242l176 242h146v-529h-160v289l-119 -166h-84l-119 166v-289h-159z" />
<glyph unicode="&#x25fc;" horiz-adv-x="983" d="M0 0v983h983v-983h-983z" />
<glyph unicode="&#xfb01;" horiz-adv-x="1251" d="M47 743v240h170v66q0 205 127 309t336 104q160 0 340 -63v-242q-141 66 -289 66q-104 0 -167.5 -44t-63.5 -132v-64h626v-983h-282v743h-344v-743h-283v743h-170z" />
<glyph unicode="&#xfb02;" horiz-adv-x="1300" d="M47 743v240h170v78q0 195 116 298t294 103q166 0 307 -61l242 41v-1442h-285v1182q-94 41 -195 41q-88 0 -142 -41t-54 -125v-74h266v-240h-266v-743h-283v743h-170z" />
<glyph unicode="&#xfb03;" horiz-adv-x="1947" d="M47 743v240h170v59q0 199 120 299.5t308 100.5q168 0 342 -76q123 129 361 129q170 0 342 -63v-242q-147 68 -289 67q-104 0 -168 -45t-64 -139v-90h654v-983h-285v743h-369v-743h-284v743h-385v-743h-283v743h-170zM500 983h385v92q0 47 6 88q-88 45 -197 45 q-90 0 -142 -43t-52 -125v-57z" />
<glyph unicode="&#xfb04;" horiz-adv-x="1968" d="M47 743v240h170v59q0 199 120 299.5t308 100.5q170 0 342 -76q110 117 307 117q166 0 308 -62l241 41v-1462h-284v1202q-94 41 -193 41q-88 0 -142.5 -43t-54.5 -131v-86h265v-240h-265v-743h-284v743h-385v-743h-283v743h-170zM500 983h385v92q0 47 6 88q-88 45 -197 45 q-90 0 -142 -43t-52 -125v-57z" />
</font>
</defs>
</svg>
